# xmcd
#
# Track frame offsets: 
#        150
#        16705
#        36205
#        53100
#        69320
#        84807
#        100597
#        114015
#        130467
#        148235
#        161502
#        179610
#        193147
#        212297
#        230977
#        251610
#        267912
#        285740
#        306367
#        321755
#        337907
#
# Disc length: 4709 seconds
#
# Revision: 8
# Processed by: cddbd v1.5.2PL0 Copyright (c) Steve Scherf et al.
# Submitted via: ExactAudioCopy v1.0b1
#
DISCID=27126315
DTITLE=Various Artist - Pure Disco 3
DYEAR=1998
DGENRE=Pop
TTITLE0=Sister Sledge - He's the Greatest Dancer
TTITLE1=Chic - Le Freak
TTITLE2=Village People - In The Navy
TTITLE3=The Trammps - Disco Inferno
TTITLE4=Peaches and Herb - Shake Your Groove Thing
TTITLE5=Kool and The Gang - Ladies Night
TTITLE6=Gloria Gaynor - Never Can Say Goodbye
TTITLE7=A Taste Of Honey - Boogie Oogie Oogie
TTITLE8=Donna Summer - Could It Be Magic
TTITLE9=The Miracles - Love Machine
TTITLE10=Silver Convention - Get Up and Boogie (That's Right)
TTITLE11=Three Degrees - When Will I See You Again
TTITLE12=France Joli - Come To Me
TTITLE13=Patrice Rushen - Forget-Me-Nots
TTITLE14=ABBA - Lay All Your Love On Me
TTITLE15=Sylvester - You Make Me Feel (Mighty Real)
TTITLE16=Spinners - Then Came You
TTITLE17=Andy Gibb - Shadow Dancing
TTITLE18=Blondie - Heart Of Glass
TTITLE19=The 4 Seasons - December, 1963 (Oh, What A Night)
TTITLE20=John Travolta and Olivia Newton-John - You're The One That I Wa
TTITLE20=nt (Martian Remix)
EXTD=YEAR: 1998 ID3G:   4
EXTT0=SISTER SLEDGE
EXTT1=CHIC
EXTT2=VILLAGE PEOPLE
EXTT3=TRAMMPS
EXTT4=PEACHES and HERB
EXTT5=Kool and The Gang
EXTT6=GLORIA GAYNOR
EXTT7=A TASTE OF HONEY
EXTT8=DONNA SUMMER
EXTT9=MIRACLES
EXTT10=Silver Convention
EXTT11=THREE DEGREES
EXTT12=France Joli
EXTT13=Patrice Rushen
EXTT14=ABBA
EXTT15=SYLVESTER
EXTT16=SPINNERS
EXTT17=ANDY GIBB
EXTT18=BLONDIE
EXTT19=FOUR SEASONS
EXTT20=JOHN TRAVOLTA/OLIVIA NEWTON-JOHN
PLAYORDER=
